<svg width="640" height="420" viewBox="0 0 640 420" xmlns="http://www.w3.org/2000/svg" role="img" aria-label="Citrus herb salmon illustration">
  <defs>
    <linearGradient id="bg" x1="0%" y1="0%" x2="0%" y2="100%">
      <stop offset="0%" stop-color="#fef3c7"/>
      <stop offset="100%" stop-color="#fde68a"/>
    </linearGradient>
  </defs>
  <rect width="640" height="420" rx="36" fill="url(#bg)"/>
  <ellipse cx="320" cy="210" rx="260" ry="130" fill="#fcd34d" opacity="0.2"/>
  <ellipse cx="320" cy="210" rx="220" ry="104" fill="#f97316" opacity="0.25"/>
  <path d="M140 220c54-64 202-64 256 0s202 64 256 0" stroke="#fb923c" stroke-width="18" stroke-linecap="round" stroke-opacity="0.35"/>
  <path d="M150 200c40-48 182-48 222 0s182 48 222 0" stroke="#f97316" stroke-width="12" stroke-linecap="round" stroke-opacity="0.45"/>
  <path d="M200 230c30-20 120-20 150 0" stroke="#f59e0b" stroke-width="12" stroke-linecap="round" opacity="0.5"/>
  <circle cx="200" cy="150" r="28" fill="#34d399" opacity="0.7"/>
  <circle cx="440" cy="150" r="24" fill="#34d399" opacity="0.6"/>
  <circle cx="360" cy="120" r="12" fill="#10b981" opacity="0.5"/>
  <circle cx="280" cy="120" r="8" fill="#10b981" opacity="0.4"/>
  <text x="320" y="340" text-anchor="middle" font-size="32" font-family="Arial, Helvetica, sans-serif" fill="#92400e" font-weight="600">
    Citrus Herb Salmon
  </text>
  <text x="320" y="370" text-anchor="middle" font-size="18" fill="#b45309" font-family="Arial, Helvetica, sans-serif">
    Omega-3 rich + citrus glaze
  </text>
</svg>
